<?xml version="1.0" encoding="UTF-8" standalone="no"?>
<svg
   xmlns:dc="http://purl.org/dc/elements/1.1/"
   xmlns:cc="http://creativecommons.org/ns#"
   xmlns:rdf="http://www.w3.org/1999/02/22-rdf-syntax-ns#"
   xmlns:svg="http://www.w3.org/2000/svg"
   xmlns="http://www.w3.org/2000/svg"
   xmlns:sodipodi="http://sodipodi.sourceforge.net/DTD/sodipodi-0.dtd"
   xmlns:inkscape="http://www.inkscape.org/namespaces/inkscape"
   version="1.1"
   x="0px"
   y="0px"
   width="100px"
   height="100px"
   viewBox="0 0 100 100"
   enable-background="new 0 0 100 100"
   xml:space="preserve"
   id="svg2"
   inkscape:version="0.48.4 r9939"
   sodipodi:docname="icon_17479.svg"
   inkscape:export-filename="C:\GitHub\CloudFlare-Power-Tools\icons\16.png"
   inkscape:export-xdpi="14.4"
   inkscape:export-ydpi="14.4"><metadata
   id="metadata12"><rdf:RDF><cc:Work
       rdf:about=""><dc:format>image/svg+xml</dc:format><dc:type
         rdf:resource="http://purl.org/dc/dcmitype/StillImage" /><dc:title></dc:title></cc:Work></rdf:RDF></metadata><defs
   id="defs10">
	
</defs><sodipodi:namedview
   pagecolor="#ffffff"
   bordercolor="#666666"
   borderopacity="1"
   objecttolerance="10"
   gridtolerance="10"
   guidetolerance="10"
   inkscape:pageopacity="0"
   inkscape:pageshadow="2"
   inkscape:window-width="1858"
   inkscape:window-height="1057"
   id="namedview8"
   showgrid="false"
   inkscape:zoom="4.72"
   inkscape:cx="51.239376"
   inkscape:cy="59.763846"
   inkscape:window-x="-8"
   inkscape:window-y="-8"
   inkscape:window-maximized="1"
   inkscape:current-layer="svg2" />
<g
   id="Captions">
</g>

<path
   id="path11"
   style="fill:#ff6600"
   d="m 49.184733,42.856989 9.040063,2.400855 -0.0033,0.01227 c 0.209711,0.0478 0.419581,0.0983 0.630605,0.154339 5.285808,1.403801 8.964624,4.824647 8.216726,7.640746 -0.585198,2.203476 -3.708021,3.383644 -7.57091,3.120397 -0.623445,0.05114 -1.429094,0.188295 -1.72315,0.553697 -0.657935,0.817331 1.104281,8.647469 1.248999,12.096843 l -2.668464,-0.708689 -0.413918,1.558547 -7.173569,-1.905152 c 0.01451,-0.768436 0.08786,-1.496289 0.08786,-1.496289 0,0 1.822698,-1.136245 1.888339,-1.505394 0.04098,-0.226845 0.796586,-2.593899 0.858176,-5.826055 0.376803,0.06155 0.647136,0.06242 0.671366,0.06185 l 0.199219,-6.9e-5 0.01122,-0.19885 0.271494,-4.09011 c 0,0 -2.58074,-0.677984 -2.596245,-0.69214 L 46.47659,53.055736 c 0,0 -4.255767,-1.606138 -5.678364,-2.213798 l 2.3598,-8.885477 c 1.536747,0.177843 6.026706,0.900519 6.026706,0.900519 z m 7.383394,27.973939 0.385244,-1.450581 2.880307,0.76495 -0.982825,3.70068 -0.0049,-0.0013 c -0.319228,0.992657 -1.362189,1.573326 -2.381725,1.302559 l -9.936916,-2.63904 1.077642,-4.057701 8.963178,2.380435 z M 39.495285,41.453924 c 0.871035,0.101301 1.741769,0.202084 2.611986,0.303168 l -2.320048,8.735796 C 38.981221,50.148365 38.175111,49.804251 37.369,49.460136 c -1.154727,-0.5085 -1.911795,-1.596117 -1.690336,-2.429987 l 1.14346,-4.305531 c 0.22135,-0.833461 1.417886,-1.402241 2.673161,-1.270694 z M 52.011039,55.509765 50.43335,55.085501 c 0,0 -0.561816,2.098922 0.03109,2.515567 0.593501,0.417678 1.405803,0.415375 1.405803,0.415375 l 0.140798,-2.506691 z M 30.474733,42.6986 l 0.903281,1.526165 -1.62777,-0.431864 -0.905109,-1.527526 1.629707,0.432816 z m -2.484842,-0.659923 0.904591,1.527826 -1.660078,-0.440445 -0.906527,-1.528777 1.662014,0.441396 z m 4.873578,1.294322 0.903306,1.52442 -1.532711,-0.405692 -0.903799,-1.525865 1.533191,0.407184 z m 2.841045,0.754523 -0.318557,1.19948 -0.76241,-0.202042 -0.904125,-1.524637 1.985092,0.527199 z M 88.361,53.688 c -0.021,0 -0.043,0.004 -0.067,0.004 0.014,-0.221 0.067,-0.432 0.067,-0.658 0,-7.117 -5.769,-12.884 -12.885,-12.884 -3.419,0 -6.508,1.354 -8.814,3.528 0.003,-0.121 0.019,-0.24 0.019,-0.361 0,-11.801 -9.569,-21.372 -21.375,-21.372 -11.804,0 -21.375,9.571 -21.375,21.372 0,0.505 0.04,1.001 0.075,1.497 -2.169,-1.017 -4.581,-1.6 -7.133,-1.6 C 7.554,43.213 0,51.292 0,60.61 0,69.928 7.554,78 16.873,78 H 88.361 C 94.788,78 100,72.271 100,65.845 100,59.417 94.788,53.688 88.361,53.688 z" /></svg>